# xmcd CD database file
#
# Track frame offsets:
#	225
#	13785
#	29616
#	42259
#	62591
#	81583
#	98233
#	114295
#	128709
#	145807
#	163771
#	176309
#	192059
#
# Disc length: 2767 seconds
#
# Revision: 2
# Processed by: cddbd v1.5.2PL0 Copyright (c) Steve Scherf et al.
# Submitted via: CDex 1.70beta2
#
DISCID=aa0acc0d
DTITLE=Mitchell John - Pieces of My Life
DYEAR=2000
DGENRE=Country
TTITLE0=I Couldn't Love Her Anymore
TTITLE1=Pieces of My Life
TTITLE2=I Don't Blame Me For Loving You
TTITLE3=Thinkin' About You
TTITLE4=Home With Me
TTITLE5=Que Pasa El Paso
TTITLE6=She's Just an Old Song
TTITLE7=Driftwood
TTITLE8=Old Lover's Moon
TTITLE9=For Old time's Sake
TTITLE10=Needle In a Haystack
TTITLE11=If That Isn't Love
TTITLE12=God's Country U.S.A.
EXTD=YEAR: 2000
EXTT0=
EXTT1=
EXTT2=
EXTT3=
EXTT4=
EXTT5=
EXTT6=
EXTT7=
EXTT8=
EXTT9=
EXTT10=
EXTT11=
EXTT12=
PLAYORDER=
